PathFileType	4	(X/Y/Z)	c:/Users/goper/Files/vsCode/490R/osim_files/C04/C04_Slow_06.trc
DataRate	CameraRate	NumFrames	NumMarkers	Units                	OrigDataRate	OrigDataStartFrame	OrigNumFrames
250.00	250.00	4	36	mm	250.0	1977	3162
                Frame#	Time	LPSIS			LASIS			LTH1			LTH2			LTH3			LTH4			LLFE			LMFE			LSH1			LSH2			LSH3			LSH4			LLMAL			LMMAL			LCAL			LMTP5			LTOE			LMTP1			RPSIS			RASIS			RTH1			RTH2			RTH3			RTH4			RLFE			RMFE			RSH1			RSH2			RSH3			RSH4			RLMAL			RMMAL			RCAL			RMTP1			RTOE			RMTP5		
		X1	Y1	Z1	X2	Y2	Z2	X3	Y3	Z3	X4	Y4	Z4	X5	Y5	Z5	X6	Y6	Z6	X7	Y7	Z7	X8	Y8	Z8	X9	Y9	Z9	X10	Y10	Z10	X11	Y11	Z11	X12	Y12	Z12	X13	Y13	Z13	X14	Y14	Z14	X15	Y15	Z15	X16	Y16	Z16	X17	Y17	Z17	X18	Y18	Z18	X19	Y19	Z19	X20	Y20	Z20	X21	Y21	Z21	X22	Y22	Z22	X23	Y23	Z23	X24	Y24	Z24	X25	Y25	Z25	X26	Y26	Z26	X27	Y27	Z27	X28	Y28	Z28	X29	Y29	Z29	X30	Y30	Z30	X31	Y31	Z31	X32	Y32	Z32	X33	Y33	Z33	X34	Y34	Z34	X35	Y35	Z35	X36	Y36	Z36

1977	7.90400	-8.13236	968.31213	290.94174	-180.24460	955.32227	356.88327	-112.66014	704.69525	428.14859	-127.14848	646.60883	412.33911	-172.10728	730.18915	426.31729	-189.90233	666.28674	425.89713	-205.94478	458.67648	365.24646	-199.48505	452.93628	249.30812	-166.60948	350.63467	371.89233	-162.11179	302.89139	366.53870	-219.24374	352.08334	367.46930	-222.21370	305.32220	361.99216	-206.30287	73.44702	330.89194	-204.90659	95.29900	240.28491	-138.46173	45.53378	284.04791	-342.88745	27.01262	327.32715	-360.89062	57.18597	273.41870	-328.37650	27.53047	222.88884	-4.04344	966.21503	215.84398	-169.18163	935.75397	142.08365	-47.79734	707.86310	82.63664	-50.13928	646.32172	92.30775	-113.37762	714.51990	79.89743	-125.37680	654.81915	87.18997	-97.64762	433.24359	109.05989	-112.58354	422.52972	222.04959	35.21115	388.12473	97.57367	66.57549	355.35535	104.16573	0.00000	0.00000	0.00000	33.06646	313.50662	100.97731	222.73755	204.67413	134.35301	208.84329	212.52309	222.44417	278.70844	250.79767	176.59421	204.45586	79.21120	242.02547	178.02913	56.23145	202.44556	216.62234	58.63164	139.54242
1978	7.90800	-12.02049	968.46606	291.28970	-184.22073	955.52142	357.42459	-115.48621	704.77527	428.26611	-129.51355	646.84210	412.43561	-175.09595	730.08282	426.79950	-192.74158	665.89673	425.65387	-207.78949	458.30066	365.47610	-201.85934	452.88049	249.47896	-168.07899	350.67493	371.70215	-163.36230	302.99158	366.32285	-220.74060	351.79175	367.49268	-223.97485	304.80154	361.55795	-206.48041	73.43218	330.74380	-205.12598	95.22782	240.15039	-138.55710	45.62727	283.99203	-342.97931	26.83097	327.24323	-361.02048	56.81710	273.22183	-328.47095	27.02990	222.79787	-7.87276	966.25037	216.18187	-173.16203	935.87402	142.42635	-52.94643	707.46063	82.77477	-55.93507	645.98889	92.29474	-118.24512	714.96240	79.88205	-131.17708	655.03284	87.58704	-105.97321	433.41025	108.67417	-121.00082	422.90414	221.85774	26.64946	389.20425	97.25863	58.17659	356.57059	103.77869	0.00000	0.00000	0.00000	0.00000	0.00000	0.00000	217.09412	207.30696	133.52769	201.36555	215.61273	222.08536	270.57928	255.57196	176.06824	199.85036	81.80239	241.46388	173.70490	57.46280	201.87901	212.81987	61.76205	139.49455
1979	7.91200	-15.89829	968.59100	291.63632	-188.21303	955.55066	357.70560	-118.20081	704.86786	428.35913	-132.07672	646.93567	412.54623	-177.91417	730.05109	427.14398	-195.64885	665.86792	425.43271	-209.64062	458.02942	365.72018	-204.11049	452.85684	249.66805	-169.48085	350.67801	371.54758	-164.43826	303.08017	366.15060	-222.07495	351.58087	367.76578	-225.41454	304.33170	361.42780	-206.64958	73.39594	330.62921	-205.30702	95.13219	240.02962	-138.63817	45.68447	283.97568	-343.05182	26.61576	327.17371	-361.15222	56.50114	273.06284	-328.49240	26.51642	222.73404	-11.78144	966.25165	216.54396	-177.04492	936.13086	142.58835	-58.14406	707.25446	83.07570	-61.65152	645.69055	92.33611	-123.46161	715.20154	80.13852	-137.16077	655.23328	88.33249	-114.41796	433.57809	108.34137	-129.38814	423.35077	221.66428	17.79472	390.18201	96.87040	49.71947	357.76840	103.41100	0.00000	0.00000	0.00000	17.10003	315.46530	101.10374	209.64169	210.57111	133.45256	193.88950	218.68761	221.75711	262.11438	260.05447	175.75676	194.86128	84.24281	240.87717	168.72139	58.56210	201.38329	208.79012	64.69667	139.53185
1980	7.91600	-19.74388	968.74536	292.05762	-191.86417	955.50323	358.34195	-120.82829	704.98041	428.43457	-134.68390	647.09875	412.50549	-180.68771	729.91101	427.53320	-198.54929	666.01190	425.18857	-211.37338	457.81842	365.89499	-206.34442	452.82355	249.83844	-170.65381	350.74802	371.51703	-165.49625	303.09103	366.01544	-223.32832	351.31894	367.93188	-225.62022	304.56256	362.27200	-206.71915	73.37920	330.57272	-205.54762	95.02765	239.91872	-138.70715	45.74014	283.93198	-343.12500	26.38795	327.13861	-361.28604	56.09243	272.89542	-328.58496	26.01121	222.68036	-15.55333	966.30792	216.90436	-180.94643	936.33539	142.87524	-63.31482	707.01837	83.32407	-67.36926	645.49005	92.35873	-128.61270	715.48566	80.37720	-143.05180	655.38782	89.05894	-122.87791	433.92438	107.97720	-137.47572	423.86047	221.54851	9.16872	391.09763	96.53735	41.27769	358.99268	102.99892	0.00000	0.00000	0.00000	0.00000	0.00000	0.00000	202.20563	213.61322	133.37505	186.01544	221.43141	221.52873	253.57237	264.17883	175.57726	189.64796	86.40225	240.27806	162.34439	59.80404	201.40154	204.49280	67.47075	139.43904
